<svg xmlns="http://www.w3.org/2000/svg" version="1.1" xmlns:xlink="http://www.w3.org/1999/xlink" width="1500" height="1500" viewBox="0 0 1500 1500"><rect width="1500" height="1500" x="0" y="0" id="background" stroke="transparent" fill="#ffffff"></rect><svg xml:space="preserve" width="1000" height="1000" data-version="2" data-id="lg_3BNbEmOxJ4uCr5Pk49" viewBox="0 0 571 233" x="250" y="250"><rect width="100%" height="100%" fill="transparent"></rect><path fill="#1b1b1b" d="M565.49 33.076v166.857l-279.99 30.74-279.99-30.75V33.068L285.5 2.327z"></path><g transform="translate(50.98 112.49)"><linearGradient id="a" x1="-.03" x2="9.59" y1="0" y2="0" gradientUnits="objectBoundingBox"><stop offset="0%" stop-color="#eaeaea"></stop><stop offset="100%" stop-color="#afafaf"></stop></linearGradient><path fill="url(#a)" d="M165.48 439.3q-9.76 0-14.88-5.55-5.13-5.55-5.13-15.92v-65.15h13.42v66.12q0 4.4 1.77 6.35 1.77 1.95 5.07 1.95 3.29 0 5.06-1.95 1.77-1.95 1.77-6.35v-66.12h12.93v65.15q0 10.37-5.12 15.92-5.13 5.55-14.89 5.55" transform="translate(-165.48 -395.99)"></path></g><rect width="40.02" height="86.62" x="-20.01" y="-43.31" fill="none" rx="0" ry="0" transform="translate(51.48 112.99)"></rect><g transform="translate(101.56 111.88)"><linearGradient id="b" x1="-.97" x2="8.03" y1="0" y2="0" gradientUnits="objectBoundingBox"><stop offset="0%" stop-color="#eaeaea"></stop><stop offset="100%" stop-color="#afafaf"></stop></linearGradient><path fill="url(#b)" d="M195.01 352.68h16.83l13.06 51.12h.24v-51.12h11.96v85.4h-13.79l-16.1-62.34h-.25v62.34h-11.95Z" transform="translate(-216.06 -395.38)"></path></g><rect width="42.09" height="85.4" x="-21.05" y="-42.7" fill="none" rx="0" ry="0" transform="translate(102.06 112.38)"></rect><g transform="translate(139.31 111.88)"><linearGradient id="c" x1="-4.38" x2="16.86" y1="0" y2="0" gradientUnits="objectBoundingBox"><stop offset="0%" stop-color="#eaeaea"></stop><stop offset="100%" stop-color="#afafaf"></stop></linearGradient><path fill="url(#c)" d="M247.1 352.68h13.42v85.4H247.1Z" transform="translate(-253.81 -395.38)"></path></g><rect width="13.42" height="85.4" x="-6.71" y="-42.7" fill="none" rx="0" ry="0" transform="translate(139.81 112.38)"></rect><g transform="translate(177.07 115.23)"><linearGradient id="d" x1="-2.58" x2="7.09" y1="0" y2="0" gradientUnits="objectBoundingBox"><stop offset="0%" stop-color="#eaeaea"></stop><stop offset="100%" stop-color="#afafaf"></stop></linearGradient><path fill="url(#d)" d="M310.05 446.01q-9.15 0-11.22-8.17-3.78 1.46-8.91 1.46-9.88 0-15.13-5.61-5.24-5.61-5.24-15.86v-44.9q0-10.25 5.24-15.86 5.25-5.61 15.13-5.61t15.13 5.61q5.25 5.61 5.25 15.86v44.9q0 8.54-3.79 14.03.74 1.22 1.83 1.58 1.1.37 3.18.37h2.07v12.2zm-20.13-18.91q6.96 0 6.96-8.42v-46.6q0-8.42-6.96-8.42-6.95 0-6.95 8.42v46.6q0 8.42 6.95 8.42" transform="translate(-291.57 -398.74)"></path></g><rect width="44.04" height="94.55" x="-22.02" y="-47.27" fill="none" rx="0" ry="0" transform="translate(177.57 115.73)"></rect><g transform="translate(224.35 112.49)"><linearGradient id="e" x1="-3.57" x2="6.06" y1="0" y2="0" gradientUnits="objectBoundingBox"><stop offset="0%" stop-color="#eaeaea"></stop><stop offset="100%" stop-color="#afafaf"></stop></linearGradient><path fill="url(#e)" d="M338.84 439.3q-9.76 0-14.88-5.55-5.12-5.55-5.12-15.92v-65.15h13.42v66.12q0 4.4 1.76 6.35 1.77 1.95 5.07 1.95 3.29 0 5.06-1.95 1.77-1.95 1.77-6.35v-66.12h12.93v65.15q0 10.37-5.12 15.92-5.13 5.55-14.89 5.55" transform="translate(-338.85 -395.99)"></path></g><rect width="40.01" height="86.62" x="-20" y="-43.31" fill="none" rx="0" ry="0" transform="translate(224.85 112.99)"></rect><g transform="translate(272.17 111.88)"><linearGradient id="f" x1="-5.06" x2="5.71" y1="0" y2="0" gradientUnits="objectBoundingBox"><stop offset="0%" stop-color="#eaeaea"></stop><stop offset="100%" stop-color="#afafaf"></stop></linearGradient><path fill="url(#f)" d="M368.37 352.68h36.6v12.2h-23.18v22.57h18.42v12.2h-18.42v26.23h23.18v12.2h-36.6Z" transform="translate(-386.67 -395.38)"></path></g><rect width="36.6" height="85.4" x="-18.3" y="-42.7" fill="none" rx="0" ry="0" transform="translate(272.67 112.38)"></rect><g transform="translate(335.37 111.88)"><linearGradient id="g" x1="-6.34" x2="4.14" y1="0" y2="0" gradientUnits="objectBoundingBox"><stop offset="0%" stop-color="#eaeaea"></stop><stop offset="100%" stop-color="#afafaf"></stop></linearGradient><path fill="url(#g)" d="M449.62 439.3q-9.76 0-14.76-5.55t-5-15.92v-4.88h12.68v5.85q0 8.3 6.96 8.3 3.41 0 5.18-2.01 1.77-2.02 1.77-6.53 0-5.37-2.44-9.45-2.44-4.09-9.03-9.83-8.29-7.32-11.59-13.23-3.29-5.92-3.29-13.36 0-10.13 5.12-15.68 5.13-5.55 14.89-5.55 9.64 0 14.58 5.55 4.94 5.55 4.94 15.92v3.54h-12.69v-4.39q0-4.39-1.71-6.41-1.71-2.01-5-2.01-6.71 0-6.71 8.17 0 4.64 2.5 8.67 2.5 4.02 9.09 9.76 8.42 7.32 11.59 13.29 3.17 5.98 3.17 14.03 0 10.5-5.18 16.11-5.19 5.61-15.07 5.61" transform="translate(-449.87 -395.38)"></path></g><rect width="40.01" height="87.84" x="-20" y="-43.92" fill="none" rx="0" ry="0" transform="translate(335.87 112.38)"></rect><g transform="translate(380.26 111.88)"><linearGradient id="h" x1="-7.58" x2="3.28" y1="0" y2="0" gradientUnits="objectBoundingBox"><stop offset="0%" stop-color="#eaeaea"></stop><stop offset="100%" stop-color="#afafaf"></stop></linearGradient><path fill="url(#h)" d="M488.05 364.88h-14.03v-12.2h41.48v12.2h-14.03v73.2h-13.42Z" transform="translate(-494.76 -395.38)"></path></g><rect width="41.48" height="85.4" x="-20.74" y="-42.7" fill="none" rx="0" ry="0" transform="translate(380.76 112.38)"></rect><g transform="translate(426.38 111.88)"><linearGradient id="i" x1="-7.73" x2="1.95" y1="0" y2="0" gradientUnits="objectBoundingBox"><stop offset="0%" stop-color="#eaeaea"></stop><stop offset="100%" stop-color="#afafaf"></stop></linearGradient><path fill="url(#i)" d="M540.88 439.3q-9.89 0-15.13-5.61-5.25-5.61-5.25-15.86v-44.9q0-10.25 5.25-15.86 5.24-5.61 15.13-5.61 9.88 0 15.12 5.61 5.25 5.61 5.25 15.86v44.9q0 10.25-5.25 15.86-5.24 5.61-15.12 5.61m0-12.2q6.95 0 6.95-8.42v-46.6q0-8.42-6.95-8.42-6.96 0-6.96 8.42v46.6q0 8.42 6.96 8.42" transform="translate(-540.88 -395.38)"></path></g><rect width="40.75" height="87.84" x="-20.38" y="-43.92" fill="none" rx="0" ry="0" transform="translate(426.88 112.38)"></rect><g transform="translate(476.46 111.88)"><linearGradient id="j" x1="-8.66" x2=".94" y1="0" y2="0" gradientUnits="objectBoundingBox"><stop offset="0%" stop-color="#eaeaea"></stop><stop offset="100%" stop-color="#afafaf"></stop></linearGradient><path fill="url(#j)" d="M570.28 352.68h19.88q10.37 0 15.13 4.82 4.76 4.82 4.76 14.82v5.25q0 13.3-8.78 16.83v.25q4.88 1.46 6.89 5.98 2.01 4.51 2.01 12.07v15.01q0 3.66.25 5.92.24 2.25 1.22 4.45h-13.67q-.73-2.07-.97-3.9-.25-1.83-.25-6.59v-15.62q0-5.85-1.89-8.17-1.89-2.32-6.53-2.32h-4.63v36.6h-13.42Zm18.3 36.6q4.02 0 6.04-2.07 2.01-2.08 2.01-6.96v-6.59q0-4.63-1.65-6.71-1.64-2.07-5.18-2.07h-6.1v24.4Z" transform="translate(-590.96 -395.38)"></path></g><rect width="41.36" height="85.4" x="-20.68" y="-42.7" fill="none" rx="0" ry="0" transform="translate(476.96 112.38)"></rect><g transform="translate(523.24 111.88)"><linearGradient id="k" x1="-10.73" x2=".04" y1="0" y2="0" gradientUnits="objectBoundingBox"><stop offset="0%" stop-color="#eaeaea"></stop><stop offset="100%" stop-color="#afafaf"></stop></linearGradient><path fill="url(#k)" d="M619.44 352.68h36.6v12.2h-23.18v22.57h18.43v12.2h-18.43v26.23h23.18v12.2h-36.6Z" transform="translate(-637.74 -395.38)"></path></g><rect width="36.6" height="85.4" x="-18.3" y="-42.7" fill="none" rx="0" ry="0" transform="translate(523.74 112.38)"></rect></svg></svg>